Coordinates
version=1
nRows=156
nColumns=3
inDegrees=yes

Units are S.I. units (second, meters, Newtons, ...)
If the header above contains a line with 'inDegrees', this indicates whether rotational values are in degrees (yes) or radians (no).

endheader
time	r_shoulder_elev	r_elbow_flex
     36.16670000	     43.69032451	     35.42404437
     36.20000000	     43.90703483	     37.03788167
     36.23330000	     44.34773807	     37.61221144
     36.26670000	     45.09513892	     36.97228484
     36.30000000	     46.06792889	     35.69609733
     36.33330000	     47.07994904	     34.44480098
     36.36670000	     47.96649458	     33.43766346
     36.40000000	     48.70312245	     32.45559694
     36.43330000	     49.38983066	     31.20326758
     36.46670000	     50.08133631	     29.73818440
     36.50000000	     50.63434155	     28.63120844
     36.53330000	     50.86891496	     28.39421162
     36.56670000	     50.83651757	     28.81498362
     36.60000000	     50.80425034	     29.08714633
     36.63330000	     50.95865484	     28.67403632
     36.66670000	     51.17979883	     27.98383530
     36.70000000	     51.18722413	     27.91448978
     36.73330000	     50.93579977	     28.61417080
     36.76670000	     50.70954355	     29.20589017
     36.80000000	     50.76288339	     28.96140293
     36.83330000	     51.00585765	     28.22836158
     36.86670000	     51.11793735	     27.94583658
     36.90000000	     50.89466157	     28.50296215
     36.93330000	     50.38467314	     29.46996210
     36.96670000	     49.71500932	     30.39035493
     37.00000000	     48.86861014	     31.49042840
     37.03330000	     47.68360018	     33.40633601
     37.06670000	     46.14345187	     36.13309389
     37.10000000	     44.58859007	     38.55876986
     37.13330000	     43.47878490	     39.42809786
     37.16670000	     42.90499260	     38.71096366
     37.20000000	     42.44442430	     37.64953390
     37.23330000	     41.58765975	     37.42531148
     37.26670000	     40.19636097	     38.18977071
     37.30000000	     38.49096235	     39.49315515
     37.33330000	     36.77600838	     41.07870331
     37.36670000	     35.29263057	     42.75380334
     37.40000000	     34.17902086	     44.03096350
     37.43330000	     33.40377208	     44.70358404
     37.46670000	     32.85449100	     45.20969895
     37.50000000	     32.47148377	     46.13539904
     37.53330000	     32.23340969	     47.57897447
     37.56670000	     32.08256412	     49.05632915
     37.60000000	     31.98018201	     49.94316707
     37.63330000	     32.02782806	     49.96927855
     37.66670000	     32.40718890	     49.49719112
     37.70000000	     33.12879405	     49.23404785
     37.73330000	     33.91294541	     49.46581714
     37.76670000	     34.44746430	     49.94646474
     37.80000000	     34.95626539	     49.79426112
     37.83330000	     36.34233529	     47.43868804
     37.86670000	     39.24478804	     42.13434261
     37.90000000	     42.98410195	     35.52699315
     37.93330000	     46.17987101	     30.11184132
     37.96670000	     48.17905574	     26.79824910
     38.00000000	     49.25347650	     25.05352332
     38.03330000	     49.95346818	     24.06061912
     38.06670000	     50.55247324	     23.39404377
     38.10000000	     50.95265716	     23.05421055
     38.13330000	     51.00517922	     23.07667617
     38.16670000	     50.75862270	     23.32979638
     38.20000000	     50.33136253	     23.72923967
     38.23330000	     49.64612927	     24.46383844
     38.26670000	     48.48507370	     25.82523281
     38.30000000	     46.87421000	     27.76427771
     38.33330000	     45.34441841	     29.52937869
     38.36670000	     44.58147549	     30.03717167
     38.40000000	     44.69273930	     29.02094800
     38.43330000	     45.14852097	     27.25572703
     38.46670000	     45.46902697	     25.44924138
     38.50000000	     45.59244453	     23.68754553
     38.53330000	     45.62820626	     22.05378788
     38.56670000	     45.52725977	     21.31302460
     38.60000000	     45.12694401	     22.46219932
     38.63330000	     44.51595176	     25.18936413
     38.66670000	     44.07724052	     27.69929311
     38.70000000	     44.04326397	     28.69153174
     38.73330000	     44.26839932	     28.55376984
     38.76670000	     44.44569062	     28.55852258
     38.80000000	     44.46241049	     29.29153848
     38.83330000	     44.49722128	     30.11485972
     38.86670000	     44.76993869	     30.05944718
     38.90000000	     45.24601134	     28.96374739
     38.93330000	     45.64038980	     27.63382244
     38.96670000	     45.70418594	     26.98163046
     39.00000000	     45.45410294	     27.20559857
     39.03330000	     45.07615036	     27.92276577
     39.06670000	     44.69495150	     28.78986130
     39.10000000	     44.32181414	     29.70642985
     39.13330000	     43.99944318	     30.48081337
     39.16670000	     43.89373859	     30.63245954
     39.20000000	     44.14680608	     29.84735651
     39.23330000	     44.59679541	     28.69259800
     39.26670000	     44.73089683	     28.56528309
     39.30000000	     44.06832757	     30.57198876
     39.33330000	     42.62166399	     34.41938817
     39.36670000	     40.92781704	     38.34078686
     39.40000000	     39.53805514	     40.34035334
     39.43330000	     38.57696832	     39.76057663
     39.46670000	     37.81456000	     38.08534432
     39.50000000	     36.84182012	     38.67093404
     39.53330000	     35.61042980	     42.77907422
     39.56670000	     34.57372983	     47.40580206
     39.60000000	     33.87686120	     50.06327996
     39.63330000	     33.57365059	     50.12639229
     39.66670000	     33.89766237	     48.00146358
     39.70000000	     34.85810081	     45.17735666
     39.73330000	     36.06202908	     43.27173010
     39.76670000	     37.12300793	     42.50555903
     39.80000000	     37.98733462	     42.06132238
     39.83330000	     38.88144119	     41.31928921
     39.86670000	     40.03815215	     40.37894562
     39.90000000	     41.39020667	     39.78826187
     39.93330000	     42.58883834	     39.87028095
     39.96670000	     43.38544863	     40.34357784
     40.00000000	     44.01137634	     40.33404594
     40.03330000	     45.08664236	     38.85916148
     40.06670000	     46.96915981	     35.82610988
     40.10000000	     49.25269900	     32.40791805
     40.13330000	     51.17730230	     29.84342781
     40.16670000	     52.35792881	     28.33831820
     40.20000000	     52.87892724	     27.51726096
     40.23330000	     53.01161556	     27.08233810
     40.26670000	     52.93765489	     27.02068362
     40.30000000	     52.62947911	     27.54542460
     40.33330000	     51.93350232	     28.90024625
     40.36670000	     50.77088891	     31.05383432
     40.40000000	     49.29106048	     33.46963142
     40.43330000	     47.84562373	     35.24653395
     40.46670000	     46.72290322	     35.73499608
     40.50000000	     45.85720430	     35.14076880
     40.53330000	     44.89255607	     34.33807666
     40.56670000	     43.64840557	     33.90744397
     40.60000000	     42.38485705	     33.66560317
     40.63330000	     41.44402665	     33.18480147
     40.66670000	     40.71352002	     32.49733330
     40.70000000	     39.66193420	     32.20951288
     40.73330000	     37.89074705	     33.12063510
     40.76670000	     35.55826503	     35.68516014
     40.80000000	     33.28413985	     39.32844029
     40.83330000	     31.55527293	     42.76885566
     40.86670000	     30.35291134	     45.23186318
     40.90000000	     29.50081515	     46.51952964
     40.93330000	     28.94707164	     46.85217805
     40.96670000	     28.54650678	     47.38216904
     41.00000000	     28.01416466	     49.37888508
     41.03330000	     27.36072114	     52.09135689
     41.06670000	     26.86157144	     53.84873800
     41.10000000	     26.77102517	     54.00665144
     41.13330000	     27.16660350	     52.98222057
     41.16670000	     27.85056181	     51.41097889
     41.20000000	     28.53720675	     49.14142334
     41.23330000	     29.20771477	     45.48423605
     41.26670000	     30.09711180	     41.43680916
     41.30000000	     31.13041325	     41.34494467
     41.33330000	     32.80200008	     44.23977037
